<?xml version="1.0" standalone="no"?>
<!DOCTYPE svg PUBLIC "-//W3C//DTD SVG 20010904//EN"
 "http://www.w3.org/TR/2001/REC-SVG-20010904/DTD/svg10.dtd">
<svg version="1.0" xmlns="http://www.w3.org/2000/svg"
 width="16.000000pt" height="16.000000pt" viewBox="0 0 16.000000 16.000000"
 preserveAspectRatio="xMidYMid meet">
<metadata>
Created by potrace 1.11, written by Peter Selinger 2001-2013
</metadata>
<g transform="translate(0.000000,16.000000) scale(0.002286,-0.002286)"
fill="#000000" stroke="none">
<path d="M3392 6694 c-28 -7 -78 -27 -110 -44 -59 -32 -63 -34 -149 -87 -30
-18 -55 -33 -57 -33 -3 0 -37 -19 -78 -43 -40 -24 -93 -55 -118 -69 -25 -14
-99 -57 -165 -95 -66 -39 -140 -81 -165 -95 -25 -14 -144 -83 -265 -153 -121
-70 -238 -137 -260 -150 -22 -12 -75 -43 -118 -69 -43 -25 -80 -46 -82 -46 -3
0 -29 -16 -59 -35 -30 -19 -57 -35 -60 -35 -2 0 -65 -35 -138 -78 -73 -43
-266 -155 -428 -248 -359 -206 -396 -238 -458 -398 -14 -37 -16 -192 -17
-1496 -2 -1345 -1 -1460 15 -1517 22 -82 74 -166 131 -213 45 -39 381 -240
399 -240 6 0 10 -4 10 -10 0 -5 5 -10 10 -10 6 0 27 -10 48 -23 20 -13 62 -37
92 -54 30 -16 240 -137 465 -268 226 -131 425 -246 443 -257 18 -10 93 -53
165 -95 883 -510 891 -514 959 -529 116 -24 228 -5 335 57 200 115 537 309
718 414 121 70 236 136 255 147 19 11 123 71 230 133 107 62 213 123 235 135
22 12 59 33 82 47 l41 24 487 -485 486 -484 177 177 c97 98 195 196 217 219
l39 42 -424 425 c-261 261 -421 428 -415 433 6 5 30 20 55 33 25 13 52 29 60
35 8 6 42 26 75 44 97 52 162 106 205 170 22 32 40 65 40 73 0 7 3 17 7 21 28
28 30 145 30 1543 0 1345 -1 1440 -18 1495 -17 57 -56 132 -88 170 -35 41
-124 100 -321 213 -113 65 -347 200 -520 300 -173 101 -331 191 -350 202 -19
11 -59 34 -88 52 -29 17 -55 31 -57 31 -2 0 -47 26 -102 58 -54 33 -188 111
-298 174 -110 63 -245 141 -300 173 -55 32 -130 76 -167 97 -37 21 -82 46
-100 57 -18 10 -78 45 -133 77 -55 32 -122 66 -150 77 -64 24 -184 30 -253 11z"/>
</g>
</svg>
